<?xml version="1.0" encoding="utf-8" ?>
<svg viewBox="0 0 400 400" version="1.1" xmlns="http://www.w3.org/2000/svg"><g data-top-edge="0" data-right-edge="0" data-bottom-edge="0" data-left-edge="0"><path fill="#263238" fill-opacity="0.1" stroke="#fff" stroke-opacity="0.12" d="M40,0L400,40L360,400L0,360Z"></path><path fill="#263238" fill-opacity="0.1" stroke="#fff" stroke-opacity="0.12" d="M76,4L396,76L324,396L4,324Z"></path><path fill="#263238" fill-opacity="0.1" stroke="#fff" stroke-opacity="0.12" d="M108,11.200000000000001L388.8,108L292,388.8L11.200000000000001,292Z"></path><path fill="#263238" fill-opacity="0.1" stroke="#fff" stroke-opacity="0.12" d="M136.08,20.880000000000003L379.12,136.08L263.92,379.12L20.880000000000003,263.92Z"></path><path fill="#263238" fill-opacity="0.1" stroke="#fff" stroke-opacity="0.12" d="M160.38400000000001,32.400000000000006L367.6,160.38400000000001L239.616,367.6L32.400000000000006,239.616Z"></path><path fill="#263238" fill-opacity="0.1" stroke="#fff" stroke-opacity="0.12" d="M181.10560000000004,45.19840000000001L354.8016,181.10560000000004L218.89440000000002,354.8016L45.19840000000001,218.89440000000002Z"></path><path fill="#263238" fill-opacity="0.1" stroke="#fff" stroke-opacity="0.12" d="M198.47520000000006,58.78912000000001L341.21088,198.47520000000006L201.5248,341.21088L58.78912000000001,201.5248Z"></path><path fill="#263238" fill-opacity="0.1" stroke="#fff" stroke-opacity="0.12" d="M212.74876800000004,72.75772800000001L327.242272,212.74876800000004L187.25123200000002,327.242272L72.75772800000001,187.25123200000002Z"></path><path fill="#263238" fill-opacity="0.1" stroke="#fff" stroke-opacity="0.12" d="M224.19811840000006,86.75683200000002L313.243168,224.19811840000006L175.80188160000003,313.243168L86.75683200000002,175.80188160000003Z"></path><path fill="#263238" fill-opacity="0.1" stroke="#fff" stroke-opacity="0.12" d="M233.10262336000005,100.50096064000003L299.49903936,233.10262336000005L166.89737664000003,299.49903936L100.50096064000003,166.89737664000003Z"></path><path fill="#263238" fill-opacity="0.1" stroke="#fff" stroke-opacity="0.12" d="M239.74226496000006,113.76112691200004L286.238873088,239.74226496000006L160.25773504000003,286.238873088L113.76112691200004,160.25773504000003Z"></path><path fill="#263238" fill-opacity="0.1" stroke="#fff" stroke-opacity="0.12" d="M244.39192577280005,126.35924071680003L273.64075928320005,244.39192577280005L155.60807422720004,273.64075928320005L126.35924071680003,155.60807422720004Z"></path><path fill="#263238" fill-opacity="0.1" stroke="#fff" stroke-opacity="0.12" d="M247.31680912384005,138.16250922240005L261.83749077760007,247.31680912384005L152.68319087616004,261.83749077760007L138.16250922240005,152.68319087616004Z"></path><path fill="#263238" fill-opacity="0.1" stroke="#fff" stroke-opacity="0.12" d="M248.76887728921605,149.07793921254404L250.92206078745605,248.76887728921605L151.23112271078406,250.92206078745605L149.07793921254404,151.23112271078406Z"></path><path fill="#263238" fill-opacity="0.1" stroke="#fff" stroke-opacity="0.12" d="M248.98419563904008,159.04703302021125L240.95296697978887,248.98419563904008L151.01580436096006,240.95296697978887L159.04703302021125,151.01580436096006Z"></path><path fill="#263238" fill-opacity="0.1" stroke="#fff" stroke-opacity="0.12" d="M248.18107277311495,168.04074928209414L231.959250717906,248.18107277311495L151.81892722688517,231.959250717906L168.04074928209414,151.81892722688517Z"></path><path fill="#263238" fill-opacity="0.1" stroke="#fff" stroke-opacity="0.12" d="M246.55889056759406,176.05478163119622L223.94521836880392,246.55889056759406L153.44110943240608,223.94521836880392L176.05478163119622,153.44110943240608Z"></path><path fill="#263238" fill-opacity="0.1" stroke="#fff" stroke-opacity="0.12" d="M244.29752334771504,183.105192524836L216.89480747516416,244.29752334771504L155.7024766522851,216.89480747516416L183.105192524836,155.7024766522851Z"></path><path fill="#263238" fill-opacity="0.1" stroke="#fff" stroke-opacity="0.12" d="M241.55725176045996,189.22442560712392L210.77557439287628,241.55725176045996L158.4427482395402,210.77557439287628L189.22442560712392,158.4427482395402Z"></path><path fill="#263238" fill-opacity="0.1" stroke="#fff" stroke-opacity="0.12" d="M238.4790840237016,194.4577082224575L205.54229177754266,238.4790840237016L161.5209159762986,205.54229177754266L194.4577082224575,161.5209159762986Z"></path><path fill="#263238" fill-opacity="0.1" stroke="#fff" stroke-opacity="0.12" d="M235.1854047990857,198.85984580258193L201.14015419741827,235.1854047990857L164.81459520091448,201.14015419741827L198.85984580258193,164.81459520091448Z"></path><path fill="#263238" fill-opacity="0.1" stroke="#fff" stroke-opacity="0.12" d="M231.78087973891897,202.4924017022323L197.50759829776788,231.78087973891897L168.21912026108123,197.50759829776788L202.4924017022323,168.21912026108123Z"></path><path fill="#263238" fill-opacity="0.1" stroke="#fff" stroke-opacity="0.12" d="M228.35355159480386,205.421249505901L194.5787504940992,228.35355159480386L171.64644840519634,194.5787504940992L205.421249505901,171.64644840519634Z"></path><path fill="#263238" fill-opacity="0.1" stroke="#fff" stroke-opacity="0.12" d="M224.9760714847334,207.71447971479125L192.28552028520892,224.9760714847334L175.02392851526682,192.28552028520892L207.71447971479125,175.02392851526682Z"></path><path fill="#263238" fill-opacity="0.1" stroke="#fff" stroke-opacity="0.12" d="M221.70701636478094,209.44063889178548L190.55936110821472,221.70701636478094L178.29298363521926,190.55936110821472L209.44063889178548,178.29298363521926Z"></path><path fill="#263238" fill-opacity="0.1" stroke="#fff" stroke-opacity="0.12" d="M218.59225083912432,210.66727663908503L189.33272336091517,218.59225083912432L181.40774916087588,189.33272336091517L210.66727663908503,181.40774916087588Z"></path><path fill="#263238" fill-opacity="0.1" stroke="#fff" stroke-opacity="0.12" d="M215.6662980913034,211.45977405908897L188.54022594091126,215.6662980913034L184.33370190869678,188.54022594091126L211.45977405908897,184.33370190869678Z"></path><path fill="#263238" fill-opacity="0.1" stroke="#fff" stroke-opacity="0.12" d="M212.95369087626418,211.88042646231042L188.1195735376898,212.95369087626418L187.046309123736,188.1195735376898L211.88042646231042,187.046309123736Z"></path><path fill="#263238" fill-opacity="0.1" stroke="#fff" stroke-opacity="0.12" d="M210.47027914240672,211.98775290370583L188.01224709629443,210.47027914240672L189.52972085759345,188.01224709629443L211.98775290370583,189.52972085759345Z"></path><path fill="#263238" fill-opacity="0.1" stroke="#fff" stroke-opacity="0.12" d="M208.22447593779552,211.83600552757594L188.16399447242432,208.22447593779552L191.77552406220468,188.16399447242432L211.83600552757594,191.77552406220468Z"></path><path fill="#263238" fill-opacity="0.1" stroke="#fff" stroke-opacity="0.12" d="M206.21842779125842,211.4748525685979L188.52514743140236,206.21842779125842L193.7815722087418,188.52514743140236L211.4748525685979,193.7815722087418Z"></path><path fill="#263238" fill-opacity="0.1" stroke="#fff" stroke-opacity="0.12" d="M204.4490997552728,210.94921009086394L189.0507899091363,204.4490997552728L195.55090024472742,189.0507899091363L210.94921009086394,195.55090024472742Z"></path><path fill="#263238" fill-opacity="0.1" stroke="#fff" stroke-opacity="0.12" d="M202.90926877065917,210.29919905730483L189.70080094269542,202.90926877065917L197.09073122934106,189.70080094269542L210.29919905730483,197.09073122934106Z"></path><path fill="#263238" fill-opacity="0.1" stroke="#fff" stroke-opacity="0.12" d="M201.5884219878628,209.56020602864027L190.43979397136,201.5884219878628L198.41157801213743,190.43979397136L209.56020602864027,198.41157801213743Z"></path><path fill="#263238" fill-opacity="0.1" stroke="#fff" stroke-opacity="0.12" d="M200.47355918621253,208.76302762456254L191.23697237543774,200.47355918621253L199.5264408137877,191.23697237543774L208.76302762456254,199.5264408137877Z"></path><path fill="#263238" fill-opacity="0.1" stroke="#fff" stroke-opacity="0.12" d="M199.54990050513507,207.93408078072756L192.06591921927273,199.54990050513507L200.45009949486519,192.06591921927273L207.93408078072756,200.45009949486519Z"></path><path fill="#263238" fill-opacity="0.1" stroke="#fff" stroke-opacity="0.12" d="M198.80150237654883,207.0956627531683L192.90433724683197,198.80150237654883L201.19849762345143,192.90433724683197L207.0956627531683,201.19849762345143Z"></path><path fill="#263238" fill-opacity="0.1" stroke="#fff" stroke-opacity="0.12" d="M198.21178586357715,206.26624671550636L193.73375328449393,198.21178586357715L201.78821413642314,193.73375328449393L206.26624671550636,201.78821413642314Z"></path><path fill="#263238" fill-opacity="0.1" stroke="#fff" stroke-opacity="0.12" d="M197.76398260566882,205.46080063031343L194.53919936968686,197.76398260566882L202.23601739433147,194.53919936968686L205.46080063031343,202.23601739433147Z"></path><path fill="#263238" fill-opacity="0.1" stroke="#fff" stroke-opacity="0.12" d="M197.44150428207064,204.69111882784898L195.30888117215133,197.44150428207064L202.55849571792967,195.30888117215133L204.69111882784898,202.55849571792967Z"></path><path fill="#263238" fill-opacity="0.1" stroke="#fff" stroke-opacity="0.12" d="M197.22824197107872,203.96615737327116L196.03384262672915,197.22824197107872L202.77175802892162,196.03384262672915L203.96615737327116,202.77175802892162Z"></path><path fill="#263238" fill-opacity="0.1" stroke="#fff" stroke-opacity="0.12" d="M197.1088020366438,203.29236583305192L196.70763416694842,197.1088020366438L202.8911979633566,196.70763416694842L203.29236583305192,202.8911979633566Z"></path><path fill="#263238" fill-opacity="0.1" stroke="#fff" stroke-opacity="0.12" d="M197.06868524967427,202.67400945341112L197.32599054658925,197.06868524967427L202.93131475032615,197.32599054658925L202.67400945341112,202.93131475032615Z"></path><path fill="#263238" fill-opacity="0.1" stroke="#fff" stroke-opacity="0.12" d="M197.09441577936576,202.11347703303744L197.88652296696296,197.09441577936576L202.90558422063464,197.88652296696296L202.11347703303744,202.90558422063464Z"></path><path fill="#263238" fill-opacity="0.1" stroke="#fff" stroke-opacity="0.12" d="M197.1736264981255,201.61157090767028L198.38842909233014,197.1736264981255L202.8263735018749,198.38842909233014L201.61157090767028,202.8263735018749Z"></path><path fill="#263238" fill-opacity="0.1" stroke="#fff" stroke-opacity="0.12" d="M197.29510675754597,201.1677764667158L198.8322235332846,197.29510675754597L202.70489324245446,198.8322235332846L201.1677764667158,202.70489324245446Z"></path><path fill="#263238" fill-opacity="0.1" stroke="#fff" stroke-opacity="0.12" d="M197.44881843511985,200.7805094957988L199.2194905042016,197.44881843511985L202.5511815648806,199.2194905042016L200.7805094957988,202.5511815648806Z"></path><path fill="#263238" fill-opacity="0.1" stroke="#fff" stroke-opacity="0.12" d="M197.625885642028,200.44734038973093L199.5526596102695,197.625885642028L202.37411435797242,199.5526596102695L200.44734038973093,202.37411435797242Z"></path><path fill="#263238" fill-opacity="0.1" stroke="#fff" stroke-opacity="0.12" d="M197.81856303885218,200.16519491496064L199.8348050850398,197.81856303885218L202.18143696114828,199.8348050850398L200.16519491496064,202.18143696114828Z"></path><path fill="#263238" fill-opacity="0.1" stroke="#fff" stroke-opacity="0.12" d="M198.02018724347096,199.93053172734977L200.06946827265062,198.02018724347096L201.97981275652953,200.06946827265062L199.93053172734977,201.97981275652953Z"></path><path fill="#263238" fill-opacity="0.1" stroke="#fff" stroke-opacity="0.12" d="M198.22511534638895,199.73949727896192L200.2605027210385,198.22511534638895L201.77488465361156,200.2605027210385L199.73949727896192,201.77488465361156Z"></path><path fill="#263238" fill-opacity="0.1" stroke="#fff" stroke-opacity="0.12" d="M198.4286540838539,199.58805908570463L200.41194091429583,198.4286540838539L201.57134591614658,200.41194091429583L199.58805908570463,201.57134591614658Z"></path><path fill="#263238" fill-opacity="0.1" stroke="#fff" stroke-opacity="0.12" d="M198.6269827668981,199.47211858551955L200.5278814144809,198.6269827668981L201.3730172331024,200.5278814144809L199.47211858551955,201.3730172331024Z"></path><path fill="#263238" fill-opacity="0.1" stroke="#fff" stroke-opacity="0.12" d="M198.8170726316564,199.38760500365743L200.61239499634306,198.8170726316564L201.1829273683441,200.61239499634306L199.38760500365743,201.1829273683441Z"></path><path fill="#263238" fill-opacity="0.1" stroke="#fff" stroke-opacity="0.12" d="M198.99660486812508,199.33055176645735L200.66944823354316,198.99660486812508L201.00339513187544,200.66944823354316L199.33055176645735,201.00339513187544Z"></path><path fill="#263238" fill-opacity="0.1" stroke="#fff" stroke-opacity="0.12" d="M199.16388920466687,199.29715707662413L200.7028429233764,199.16388920466687L200.83611079533364,200.7028429233764L199.29715707662413,200.83611079533364Z"></path><path fill="#263238" fill-opacity="0.1" stroke="#fff" stroke-opacity="0.12" d="M199.31778457653783,199.2838302894284L200.71616971057213,199.31778457653783L200.68221542346268,200.71616971057213L199.2838302894284,200.68221542346268Z"></path><path fill="#263238" fill-opacity="0.1" stroke="#fff" stroke-opacity="0.12" d="M199.45762308994125,199.28722571813935L200.7127742818612,199.45762308994125L200.54237691005926,200.7127742818612L199.28722571813935,200.54237691005926Z"></path><path fill="#263238" fill-opacity="0.1" stroke="#fff" stroke-opacity="0.12" d="M199.58313820913327,199.30426545531955L200.69573454468102,199.58313820913327L200.4168617908673,200.69573454468102L199.30426545531955,200.4168617908673Z"></path><path fill="#263238" fill-opacity="0.1" stroke="#fff" stroke-opacity="0.12" d="M199.69439784268803,199.33215273070093L200.66784726929964,199.69439784268803L200.30560215731253,200.66784726929964L199.33215273070093,200.30560215731253Z"></path></g></svg>
